<svg width="164" height="40" viewBox="0 0 164 40" fill="none" xmlns="http://www.w3.org/2000/svg" role="img" aria-labelledby="title desc">
  <title id="title">JobTrackr logo</title>
  <desc id="desc">Original JobTrackr symbol and wordmark.</desc>
  <rect x="1" y="1" width="38" height="38" rx="8" fill="#1D2128"/>
  <path d="M11 21.5C11 15.7 15.7 11 21.5 11H29" stroke="#FF9E20" stroke-width="3.2" stroke-linecap="round"/>
  <path d="M29 11V18.5C29 24.3 24.3 29 18.5 29H11" stroke="#215E61" stroke-width="3.2" stroke-linecap="round"/>
  <circle cx="28.5" cy="11.5" r="3.5" fill="#FF9E20"/>
  <circle cx="11.5" cy="28.5" r="3.5" fill="#215E61"/>
  <path d="M52.2 28.4C49.3 28.4 47.3 27 46.1 24.8L49.3 22.9C49.9 24.1 50.8 25 52.1 25C53.6 25 54.4 24 54.4 22.3V11.6H58.2V22.3C58.2 26 55.9 28.4 52.2 28.4Z" fill="#1D2128"/>
  <path d="M66.7 28.4C62.7 28.4 59.8 25.5 59.8 21.6C59.8 17.7 62.7 14.8 66.7 14.8C70.7 14.8 73.6 17.7 73.6 21.6C73.6 25.5 70.7 28.4 66.7 28.4ZM66.7 25.1C68.6 25.1 69.9 23.7 69.9 21.6C69.9 19.5 68.6 18.1 66.7 18.1C64.8 18.1 63.5 19.5 63.5 21.6C63.5 23.7 64.8 25.1 66.7 25.1Z" fill="#1D2128"/>
  <path d="M82.6 28.4C80.8 28.4 79.4 27.8 78.5 26.6V28H75V10.6H78.6V16.5C79.5 15.4 80.9 14.8 82.6 14.8C86.2 14.8 88.9 17.7 88.9 21.6C88.9 25.5 86.2 28.4 82.6 28.4ZM81.8 25.1C83.8 25.1 85.2 23.7 85.2 21.6C85.2 19.5 83.8 18.1 81.8 18.1C79.9 18.1 78.5 19.5 78.5 21.6C78.5 23.7 79.9 25.1 81.8 25.1Z" fill="#1D2128"/>
  <path d="M94.2 28V15.5H90V11.6H102.2V15.5H98V28H94.2Z" fill="#215E61"/>
  <path d="M104 28V15.2H107.5V17C108.2 15.8 109.4 15.1 111 15.1H111.8V18.6H110.7C108.7 18.6 107.6 19.7 107.6 21.8V28H104Z" fill="#215E61"/>
  <path d="M118.5 28.4C114.7 28.4 111.9 25.5 111.9 21.6C111.9 17.7 114.7 14.8 118.4 14.8C120.2 14.8 121.6 15.4 122.5 16.5V15.2H126.1V28H122.6V26.6C121.6 27.8 120.3 28.4 118.5 28.4ZM119.1 25.1C121 25.1 122.4 23.7 122.4 21.6C122.4 19.5 121 18.1 119.1 18.1C117.1 18.1 115.7 19.5 115.7 21.6C115.7 23.7 117.1 25.1 119.1 25.1Z" fill="#215E61"/>
  <path d="M134.8 28.4C130.8 28.4 128 25.5 128 21.6C128 17.7 130.8 14.8 134.9 14.8C137.5 14.8 139.6 16.1 140.7 18.3L137.6 20.1C137.1 18.9 136.1 18.2 134.9 18.2C133 18.2 131.7 19.5 131.7 21.6C131.7 23.7 133 25 134.9 25C136.1 25 137.1 24.3 137.6 23.1L140.7 24.9C139.6 27.1 137.5 28.4 134.8 28.4Z" fill="#215E61"/>
  <path d="M142.4 28V10.6H146V20.4L150.2 15.2H154.5L149.4 21.2L155 28H150.7L146 22.1V28H142.4Z" fill="#215E61"/>
</svg>
